<svg xmlns="http://www.w3.org/2000/svg" version="1.1" x="0px" y="0px" viewBox="0 0 100 125"><g transform="translate(0,-952.36218)"><path d="m 13.09375,976.36216 c -0.36354,0 -0.69607,0.0704 -1.03125,0.15625 L 48.25,1008.8622 c 0.85096,0.7605 2.64904,0.7605 3.5,0 l 36.1875,-32.34379 c -0.33518,-0.0859 -0.66771,-0.15625 -1.03125,-0.15625 l -73.8125,0 z m -3.9375001,2.9375 c -0.09466,0.33823 -0.1562498,0.6942 -0.1562498,1.0625 l 0,44.00004 c 0,0.3683 0.0619,0.7243 0.1562498,1.0625 L 35.96875,1003.2372 9.1562499,979.29966 z m 81.6875001,0 -26.8125,23.93754 26.8125,22.1875 C 90.93812,1025.0865 91,1024.7305 91,1024.3622 l 0,-44.00004 c 0,-0.3683 -0.0616,-0.72427 -0.15625,-1.0625 z M 39,1005.9559 l -26.90625,22.25 c 0.32616,0.081 0.64699,0.1563 1,0.1563 l 73.8125,0 c 0.35301,0 0.67384,-0.075 1,-0.1563 L 61,1005.9559 l -6.59375,5.875 c -2.50066,2.2348 -6.31184,2.2348 -8.8125,0 L 39,1005.9559 z" stroke="none" marker="none" visibility="visible" display="inline" overflow="visible"/></g></svg>